<svg xmlns="http://www.w3.org/2000/svg" xmlns:xlink="http://www.w3.org/1999/xlink" width="500" zoomAndPan="magnify" viewBox="0 0 375 374.999991" height="500" preserveAspectRatio="xMidYMid meet" version="1.0"><defs><clipPath id="a023d5386e"><path d="M 42.1875 156 L 333.1875 156 L 333.1875 307 L 42.1875 307 Z M 42.1875 156 " clip-rule="nonzero"/></clipPath><clipPath id="fae3c14783"><path d="M 42.1875 68 L 333.1875 68 L 333.1875 219 L 42.1875 219 Z M 42.1875 68 " clip-rule="nonzero"/></clipPath></defs><rect x="-37.5" width="450" fill="#ffffff" y="-37.499999" height="449.999989" fill-opacity="1"/><rect x="-37.5" width="450" fill="#ffffff" y="-37.499999" height="449.999989" fill-opacity="1"/><g clip-path="url(#a023d5386e)"><path fill="#90b1ab" d="M 332.992188 302.179688 C 332.992188 303.710938 332.992188 305.242188 332.894531 306.773438 L 42.285156 306.773438 C 42.285156 305.242188 42.285156 303.710938 42.285156 302.179688 C 42.285156 299.804688 42.34375 297.429688 42.460938 295.054688 C 42.578125 292.679688 42.753906 290.3125 42.984375 287.945312 C 43.21875 285.582031 43.511719 283.222656 43.859375 280.871094 C 44.207031 278.523438 44.617188 276.179688 45.078125 273.851562 C 45.542969 271.519531 46.066406 269.199219 46.644531 266.894531 C 47.222656 264.589844 47.855469 262.300781 48.546875 260.027344 C 49.238281 257.753906 49.984375 255.496094 50.785156 253.257812 C 51.585938 251.019531 52.441406 248.804688 53.355469 246.609375 C 54.265625 244.414062 55.226562 242.242188 56.246094 240.09375 C 57.261719 237.945312 58.332031 235.824219 59.453125 233.726562 C 60.578125 231.628906 61.75 229.5625 62.972656 227.523438 C 64.195312 225.488281 65.46875 223.480469 66.789062 221.503906 C 68.113281 219.527344 69.480469 217.585938 70.898438 215.675781 C 72.316406 213.765625 73.78125 211.894531 75.289062 210.058594 C 76.800781 208.21875 78.355469 206.421875 79.953125 204.660156 C 81.550781 202.898438 83.191406 201.179688 84.871094 199.496094 C 86.554688 197.816406 88.277344 196.179688 90.042969 194.582031 C 91.804688 192.988281 93.605469 191.433594 95.445312 189.929688 C 97.285156 188.421875 99.160156 186.957031 101.070312 185.542969 C 102.984375 184.128906 104.929688 182.757812 106.90625 181.4375 C 108.886719 180.117188 110.894531 178.847656 112.9375 177.625 C 114.976562 176.402344 117.046875 175.234375 119.144531 174.113281 C 121.246094 172.992188 123.367188 171.925781 125.519531 170.90625 C 127.671875 169.890625 129.847656 168.929688 132.042969 168.019531 C 134.242188 167.109375 136.460938 166.253906 138.703125 165.453125 C 140.945312 164.652344 143.203125 163.910156 145.480469 163.21875 C 147.757812 162.527344 150.050781 161.894531 152.359375 161.316406 C 154.667969 160.738281 156.988281 160.21875 159.320312 159.757812 C 161.65625 159.292969 164 158.886719 166.351562 158.539062 C 168.707031 158.1875 171.066406 157.898438 173.4375 157.664062 C 175.804688 157.433594 178.175781 157.257812 180.554688 157.140625 C 182.929688 157.023438 185.308594 156.964844 187.6875 156.964844 C 190.066406 156.964844 192.445312 157.023438 194.820312 157.140625 C 197.199219 157.257812 199.570312 157.433594 201.9375 157.664062 C 204.308594 157.898438 206.667969 158.1875 209.023438 158.539062 C 211.375 158.886719 213.71875 159.292969 216.054688 159.757812 C 218.386719 160.21875 220.707031 160.738281 223.015625 161.316406 C 225.324219 161.894531 227.617188 162.527344 229.894531 163.21875 C 232.171875 163.910156 234.429688 164.652344 236.671875 165.453125 C 238.914062 166.253906 241.132812 167.109375 243.332031 168.019531 C 245.527344 168.929688 247.703125 169.890625 249.855469 170.90625 C 252.003906 171.925781 254.128906 172.992188 256.230469 174.113281 C 258.328125 175.234375 260.398438 176.402344 262.4375 177.625 C 264.480469 178.847656 266.488281 180.117188 268.46875 181.4375 C 270.445312 182.757812 272.390625 184.128906 274.304688 185.542969 C 276.214844 186.957031 278.089844 188.421875 279.929688 189.929688 C 281.769531 191.433594 283.570312 192.988281 285.332031 194.582031 C 287.097656 196.179688 288.820312 197.816406 290.503906 199.496094 C 292.183594 201.179688 293.824219 202.898438 295.421875 204.660156 C 297.019531 206.421875 298.574219 208.21875 300.085938 210.058594 C 301.59375 211.894531 303.058594 213.765625 304.476562 215.675781 C 305.894531 217.585938 307.261719 219.527344 308.585938 221.503906 C 309.90625 223.480469 311.179688 225.488281 312.402344 227.523438 C 313.625 229.5625 314.796875 231.628906 315.921875 233.726562 C 317.042969 235.824219 318.113281 237.945312 319.128906 240.09375 C 320.144531 242.242188 321.109375 244.414062 322.019531 246.609375 C 322.933594 248.804688 323.789062 251.019531 324.589844 253.257812 C 325.390625 255.496094 326.136719 257.753906 326.828125 260.027344 C 327.519531 262.300781 328.152344 264.589844 328.730469 266.894531 C 329.308594 269.203125 329.832031 271.519531 330.296875 273.851562 C 330.757812 276.179688 331.167969 278.523438 331.515625 280.871094 C 331.863281 283.222656 332.15625 285.582031 332.390625 287.945312 C 332.621094 290.3125 332.796875 292.679688 332.914062 295.054688 C 333.03125 297.429688 333.089844 299.804688 333.089844 302.179688 Z M 332.992188 302.179688 " fill-opacity="1" fill-rule="nonzero"/></g><path fill="#fbd265" d="M 292.925781 371.472656 C 292.925781 372.570312 292.925781 373.6875 292.925781 374.789062 L 82.308594 374.789062 C 82.308594 373.6875 82.308594 372.570312 82.308594 371.472656 C 82.308594 369.75 82.351562 368.027344 82.4375 366.308594 C 82.523438 364.589844 82.648438 362.871094 82.816406 361.160156 C 82.988281 359.445312 83.199219 357.738281 83.449219 356.035156 C 83.703125 354.332031 84 352.636719 84.335938 350.945312 C 84.671875 349.257812 85.046875 347.578125 85.46875 345.910156 C 85.886719 344.238281 86.347656 342.578125 86.847656 340.933594 C 87.347656 339.285156 87.886719 337.652344 88.46875 336.03125 C 89.050781 334.410156 89.667969 332.800781 90.328125 331.210938 C 90.988281 329.621094 91.6875 328.046875 92.425781 326.492188 C 93.160156 324.933594 93.9375 323.398438 94.75 321.878906 C 95.5625 320.359375 96.410156 318.863281 97.296875 317.386719 C 98.183594 315.910156 99.105469 314.457031 100.0625 313.023438 C 101.019531 311.59375 102.011719 310.183594 103.039062 308.800781 C 104.066406 307.417969 105.128906 306.0625 106.222656 304.730469 C 107.316406 303.402344 108.441406 302.097656 109.597656 300.820312 C 110.753906 299.546875 111.945312 298.300781 113.164062 297.082031 C 114.382812 295.863281 115.628906 294.675781 116.90625 293.519531 C 118.183594 292.363281 119.488281 291.242188 120.824219 290.148438 C 122.15625 289.054688 123.515625 287.996094 124.898438 286.972656 C 126.285156 285.945312 127.691406 284.957031 129.125 284 C 130.558594 283.042969 132.015625 282.121094 133.492188 281.234375 C 134.972656 280.351562 136.472656 279.503906 137.992188 278.691406 C 139.511719 277.878906 141.050781 277.105469 142.609375 276.371094 C 144.167969 275.632812 145.746094 274.9375 147.335938 274.277344 C 148.929688 273.617188 150.539062 273 152.160156 272.417969 C 153.785156 271.839844 155.421875 271.296875 157.070312 270.800781 C 158.71875 270.300781 160.382812 269.839844 162.054688 269.421875 C 163.726562 269.003906 165.40625 268.625 167.097656 268.289062 C 168.789062 267.953125 170.488281 267.660156 172.191406 267.40625 C 173.898438 267.15625 175.609375 266.945312 177.324219 266.777344 C 179.039062 266.605469 180.757812 266.480469 182.480469 266.394531 C 184.203125 266.3125 185.925781 266.269531 187.648438 266.269531 C 189.371094 266.269531 191.09375 266.3125 192.816406 266.394531 C 194.539062 266.480469 196.257812 266.605469 197.972656 266.777344 C 199.6875 266.945312 201.398438 267.15625 203.105469 267.40625 C 204.808594 267.660156 206.507812 267.953125 208.199219 268.289062 C 209.890625 268.625 211.570312 269.003906 213.242188 269.421875 C 214.914062 269.839844 216.578125 270.300781 218.226562 270.800781 C 219.875 271.296875 221.511719 271.839844 223.136719 272.417969 C 224.757812 273 226.367188 273.617188 227.960938 274.277344 C 229.550781 274.9375 231.128906 275.632812 232.6875 276.371094 C 234.246094 277.105469 235.785156 277.878906 237.304688 278.691406 C 238.824219 279.503906 240.324219 280.351562 241.800781 281.234375 C 243.28125 282.121094 244.738281 283.042969 246.171875 284 C 247.605469 284.957031 249.011719 285.945312 250.398438 286.972656 C 251.78125 287.996094 253.140625 289.054688 254.472656 290.148438 C 255.804688 291.242188 257.109375 292.363281 258.386719 293.519531 C 259.664062 294.675781 260.914062 295.863281 262.132812 297.082031 C 263.351562 298.300781 264.539062 299.546875 265.699219 300.820312 C 266.855469 302.097656 267.980469 303.402344 269.074219 304.730469 C 270.167969 306.0625 271.230469 307.417969 272.257812 308.800781 C 273.28125 310.183594 274.277344 311.59375 275.234375 313.023438 C 276.191406 314.457031 277.113281 315.910156 278 317.386719 C 278.886719 318.863281 279.734375 320.359375 280.546875 321.878906 C 281.359375 323.398438 282.136719 324.933594 282.871094 326.492188 C 283.609375 328.046875 284.308594 329.621094 284.96875 331.210938 C 285.628906 332.800781 286.246094 334.410156 286.828125 336.03125 C 287.410156 337.652344 287.949219 339.285156 288.449219 340.933594 C 288.949219 342.578125 289.410156 344.238281 289.828125 345.910156 C 290.246094 347.578125 290.625 349.257812 290.960938 350.945312 C 291.296875 352.636719 291.59375 354.332031 291.847656 356.035156 C 292.097656 357.738281 292.308594 359.445312 292.480469 361.160156 C 292.648438 362.871094 292.773438 364.589844 292.859375 366.308594 C 292.945312 368.027344 292.984375 369.75 292.984375 371.472656 Z M 292.925781 371.472656 " fill-opacity="1" fill-rule="nonzero"/><g clip-path="url(#fae3c14783)"><path fill="#d76734" d="M 42.1875 72.898438 C 42.1875 71.367188 42.1875 69.835938 42.285156 68.304688 L 332.992188 68.304688 C 332.992188 69.835938 333.089844 71.367188 333.089844 72.898438 C 333.089844 75.277344 333.03125 77.652344 332.914062 80.027344 C 332.796875 82.402344 332.621094 84.769531 332.390625 87.136719 C 332.15625 89.503906 331.863281 91.863281 331.515625 94.214844 C 331.164062 96.566406 330.757812 98.90625 330.292969 101.238281 C 329.828125 103.570312 329.308594 105.886719 328.730469 108.195312 C 328.152344 110.5 327.515625 112.792969 326.824219 115.066406 C 326.136719 117.339844 325.390625 119.597656 324.585938 121.835938 C 323.785156 124.074219 322.929688 126.292969 322.015625 128.488281 C 321.105469 130.683594 320.140625 132.855469 319.125 135.007812 C 318.105469 137.15625 317.035156 139.277344 315.914062 141.375 C 314.792969 143.472656 313.621094 145.539062 312.394531 147.578125 C 311.171875 149.617188 309.898438 151.625 308.578125 153.601562 C 307.253906 155.578125 305.882812 157.523438 304.464844 159.433594 C 303.046875 161.339844 301.582031 163.214844 300.074219 165.050781 C 298.5625 166.890625 297.007812 168.691406 295.410156 170.453125 C 293.8125 172.210938 292.171875 173.933594 290.488281 175.613281 C 288.804688 177.296875 287.082031 178.933594 285.316406 180.53125 C 283.554688 182.128906 281.75 183.679688 279.910156 185.1875 C 278.070312 186.695312 276.195312 188.160156 274.285156 189.574219 C 272.371094 190.992188 270.425781 192.359375 268.445312 193.679688 C 266.46875 195 264.457031 196.273438 262.414062 197.496094 C 260.375 198.71875 258.300781 199.886719 256.203125 201.007812 C 254.105469 202.128906 251.976562 203.199219 249.828125 204.214844 C 247.675781 205.230469 245.5 206.195312 243.300781 207.105469 C 241.101562 208.015625 238.878906 208.871094 236.640625 209.671875 C 234.398438 210.472656 232.136719 211.214844 229.859375 211.90625 C 227.582031 212.597656 225.289062 213.230469 222.980469 213.808594 C 220.671875 214.386719 218.347656 214.90625 216.015625 215.371094 C 213.679688 215.835938 211.335938 216.242188 208.980469 216.589844 C 206.625 216.9375 204.265625 217.230469 201.894531 217.460938 C 199.527344 217.695312 197.152344 217.871094 194.773438 217.988281 C 192.398438 218.101562 190.019531 218.160156 187.636719 218.160156 C 185.257812 218.160156 182.878906 218.101562 180.5 217.988281 C 178.125 217.871094 175.75 217.695312 173.382812 217.460938 C 171.011719 217.230469 168.652344 216.9375 166.296875 216.589844 C 163.941406 216.242188 161.597656 215.835938 159.261719 215.371094 C 156.925781 214.90625 154.605469 214.386719 152.296875 213.808594 C 149.988281 213.230469 147.695312 212.597656 145.417969 211.90625 C 143.136719 211.214844 140.878906 210.472656 138.636719 209.671875 C 136.394531 208.871094 134.175781 208.015625 131.976562 207.105469 C 129.777344 206.195312 127.601562 205.230469 125.449219 204.214844 C 123.296875 203.199219 121.171875 202.128906 119.074219 201.007812 C 116.972656 199.886719 114.902344 198.71875 112.863281 197.496094 C 110.820312 196.273438 108.808594 195 106.832031 193.679688 C 104.851562 192.359375 102.90625 190.992188 100.992188 189.574219 C 99.082031 188.160156 97.207031 186.695312 95.367188 185.1875 C 93.523438 183.679688 91.722656 182.128906 89.960938 180.53125 C 88.195312 178.933594 86.472656 177.296875 84.789062 175.613281 C 83.105469 173.933594 81.464844 172.210938 79.867188 170.453125 C 78.269531 168.691406 76.714844 166.890625 75.203125 165.050781 C 73.691406 163.214844 72.230469 161.339844 70.8125 159.433594 C 69.394531 157.523438 68.023438 155.578125 66.699219 153.601562 C 65.378906 151.625 64.105469 149.617188 62.882812 147.578125 C 61.65625 145.539062 60.484375 143.472656 59.363281 141.375 C 58.238281 139.277344 57.171875 137.15625 56.152344 135.007812 C 55.132812 132.855469 54.171875 130.683594 53.257812 128.488281 C 52.347656 126.292969 51.492188 124.074219 50.691406 121.835938 C 49.886719 119.597656 49.140625 117.339844 48.449219 115.066406 C 47.757812 112.792969 47.125 110.5 46.546875 108.195312 C 45.96875 105.886719 45.445312 103.570312 44.980469 101.238281 C 44.519531 98.90625 44.109375 96.566406 43.761719 94.214844 C 43.414062 91.863281 43.121094 89.503906 42.886719 87.136719 C 42.65625 84.769531 42.480469 82.402344 42.363281 80.027344 C 42.246094 77.652344 42.1875 75.277344 42.1875 72.898438 Z M 42.1875 72.898438 " fill-opacity="1" fill-rule="nonzero"/></g><path fill="#f2d9b4" d="M 82.25 3.609375 C 82.25 2.507812 82.25 1.390625 82.25 0.292969 L 292.867188 0.292969 C 292.867188 1.390625 292.867188 2.507812 292.867188 3.609375 C 292.867188 5.328125 292.828125 7.050781 292.742188 8.769531 C 292.660156 10.492188 292.53125 12.207031 292.363281 13.921875 C 292.195312 15.636719 291.984375 17.34375 291.734375 19.046875 C 291.480469 20.75 291.1875 22.449219 290.851562 24.136719 C 290.515625 25.824219 290.136719 27.503906 289.71875 29.175781 C 289.300781 30.847656 288.839844 32.507812 288.339844 34.152344 C 287.839844 35.800781 287.300781 37.4375 286.71875 39.058594 C 286.140625 40.679688 285.519531 42.285156 284.859375 43.878906 C 284.199219 45.46875 283.503906 47.042969 282.765625 48.601562 C 282.027344 50.15625 281.253906 51.695312 280.441406 53.214844 C 279.628906 54.734375 278.78125 56.230469 277.894531 57.707031 C 277.007812 59.183594 276.085938 60.640625 275.128906 62.070312 C 274.171875 63.503906 273.179688 64.910156 272.152344 66.296875 C 271.125 67.679688 270.0625 69.035156 268.96875 70.367188 C 267.875 71.699219 266.75 73.003906 265.59375 74.277344 C 264.4375 75.554688 263.246094 76.800781 262.027344 78.019531 C 260.808594 79.238281 259.5625 80.425781 258.285156 81.582031 C 257.007812 82.738281 255.699219 83.863281 254.367188 84.957031 C 253.035156 86.046875 251.675781 87.109375 250.292969 88.132812 C 248.90625 89.160156 247.496094 90.152344 246.0625 91.109375 C 244.628906 92.066406 243.175781 92.988281 241.695312 93.871094 C 240.214844 94.757812 238.714844 95.605469 237.195312 96.417969 C 235.675781 97.230469 234.136719 98.003906 232.578125 98.742188 C 231.019531 99.476562 229.441406 100.175781 227.851562 100.835938 C 226.257812 101.492188 224.648438 102.113281 223.023438 102.695312 C 221.402344 103.273438 219.765625 103.8125 218.113281 104.3125 C 216.464844 104.8125 214.804688 105.273438 213.128906 105.691406 C 211.457031 106.109375 209.777344 106.488281 208.085938 106.824219 C 206.394531 107.160156 204.695312 107.453125 202.988281 107.707031 C 201.285156 107.960938 199.574219 108.171875 197.859375 108.339844 C 196.140625 108.507812 194.421875 108.632812 192.699219 108.71875 C 190.976562 108.804688 189.253906 108.847656 187.53125 108.847656 C 185.804688 108.847656 184.082031 108.804688 182.359375 108.71875 C 180.636719 108.632812 178.917969 108.507812 177.203125 108.339844 C 175.488281 108.171875 173.777344 107.960938 172.070312 107.707031 C 170.363281 107.453125 168.667969 107.160156 166.976562 106.824219 C 165.285156 106.488281 163.601562 106.109375 161.929688 105.691406 C 160.257812 105.273438 158.597656 104.8125 156.945312 104.3125 C 155.296875 103.8125 153.660156 103.273438 152.035156 102.695312 C 150.414062 102.113281 148.804688 101.492188 147.210938 100.835938 C 145.617188 100.175781 144.042969 99.476562 142.484375 98.742188 C 140.925781 98.003906 139.386719 97.230469 137.863281 96.417969 C 136.34375 95.605469 134.84375 94.757812 133.363281 93.871094 C 131.886719 92.988281 130.429688 92.066406 128.996094 91.109375 C 127.5625 90.152344 126.152344 89.160156 124.769531 88.132812 C 123.382812 87.109375 122.023438 86.046875 120.691406 84.957031 C 119.359375 83.863281 118.054688 82.738281 116.777344 81.582031 C 115.5 80.425781 114.25 79.238281 113.03125 78.019531 C 111.8125 76.800781 110.625 75.554688 109.46875 74.277344 C 108.308594 73.003906 107.183594 71.699219 106.089844 70.367188 C 104.996094 69.035156 103.9375 67.679688 102.910156 66.296875 C 101.882812 64.910156 100.890625 63.503906 99.933594 62.070312 C 98.976562 60.640625 98.054688 59.183594 97.167969 57.707031 C 96.28125 56.230469 95.429688 54.734375 94.617188 53.214844 C 93.804688 51.695312 93.03125 50.15625 92.296875 48.601562 C 91.558594 47.042969 90.859375 45.46875 90.199219 43.878906 C 89.542969 42.285156 88.921875 40.679688 88.339844 39.058594 C 87.761719 37.4375 87.21875 35.800781 86.71875 34.152344 C 86.21875 32.507812 85.761719 30.847656 85.34375 29.175781 C 84.921875 27.503906 84.546875 25.824219 84.210938 24.136719 C 83.875 22.449219 83.582031 20.75 83.328125 19.046875 C 83.074219 17.34375 82.863281 15.636719 82.695312 13.921875 C 82.527344 12.207031 82.402344 10.492188 82.316406 8.769531 C 82.234375 7.050781 82.191406 5.328125 82.191406 3.609375 Z M 82.25 3.609375 " fill-opacity="1" fill-rule="nonzero"/></svg>